<?xml version="1.0" encoding="utf-8"?>
<!-- Generator: Adobe Illustrator 16.0.0, SVG Export Plug-In . SVG Version: 6.00 Build 0)  -->
<!DOCTYPE svg PUBLIC "-//W3C//DTD SVG 1.1//EN" "http://www.w3.org/Graphics/SVG/1.1/DTD/svg11.dtd">
<svg version="1.1" xmlns="http://www.w3.org/2000/svg" x="0px" y="0px"
     width="1248px" height="655px" viewBox="-10 -10 436.628 238.374" enable-background="new 0 0 416.628 218.374"
     xml:space="preserve">
<style>
svg {
  filter: drop-shadow(0 0 10px rgba(255,255,255,1) );
}

path, line {
  box-shadow: 0 0 10px white;
}

#hexagones path {
  stroke-dasharray: 500;
  stroke-dashoffset: 500;
  animation: hexagones 0.5s cubic-bezier(0.445, 0.05, 0.55, 0.95) forwards;
}
#hexagones path:nth-child(2) {
  animation-delay: 0.25s;
}
#hexagones path:nth-child(3) {
  animation-delay: 0.5s;
}

@keyframes hexagones {
  from {
    stroke-dashoffset: 500;
  }
  to {
    stroke-dashoffset: 0;
  }
}

#arig path {
  stroke-dasharray: 800;
  stroke-dashoffset: 800;
  fill: rgba(255, 255, 255, 0);
  animation: arig 1s linear forwards;
}
#arig path:nth-child(1) {
  animation-delay: 1s;
}
#arig path:nth-child(2), #arig path:nth-child(3) {
  animation-delay: 1.25s;
}
#arig path:nth-child(4) {
  animation-delay: 1.5s;
}
#arig path:nth-child(5) {
  animation-delay: 1.75s;
}

@keyframes arig {
  from {
    stroke-dashoffset: 800;
    fill: rgba(255, 255, 255, 0);
  }
  to {
    stroke-dashoffset: 0;
    fill: rgba(255, 255, 255, 1);
  }
}

#arig_alien path {
  opacity: 0;
  animation: arig_alien 1.75s linear forwards;
}
#arig_alien path:nth-child(1), #arig_alien path:nth-child(2) {
  animation-delay: 1s;
}
#arig_alien path:nth-child(3) {
  animation-delay: 1.25s;
}
#arig_alien path:nth-child(4), #arig_alien path:nth-child(5) {
  animation-delay: 1.5s;
}
#arig_alien path:nth-child(6) {
  animation-delay: 1.75s;
}

@keyframes arig_alien {
  from {
    opacity: 0;
  }
  to {
    opacity: 1;
  }
}

#robotique path, #robotique line {
  stroke-dasharray: 100;
  stroke-dashoffset: 100;
  opacity: 0;
  animation: robotique 1s linear forwards;
  animation-delay: 2.5s;
}
#robotique *:nth-child(1) { animation-delay: 2.5s; }
#robotique *:nth-child(2) { animation-delay: 2.6s; }
#robotique *:nth-child(3) { animation-delay: 2.7s; }
#robotique *:nth-child(4) { animation-delay: 2.8s; }
#robotique *:nth-child(5) { animation-delay: 2.9s; }
#robotique *:nth-child(6) { animation-delay: 3.0s; }
#robotique *:nth-child(7) { animation-delay: 3.1s; }
#robotique *:nth-child(8) { animation-delay: 3.2s; }
#robotique *:nth-child(9) { animation-delay: 3.3s; }
#robotique *:nth-child(10) { animation-delay: 3.4s; }
#robotique *:nth-child(11) { animation-delay: 3.5s; }
#robotique *:nth-child(12) { animation-delay: 3.6s; }

@keyframes robotique {
  from {
    opacity: 1;
    stroke-dashoffset: 100;
  }
  to {
    opacity: 1;
    stroke-dashoffset: 0;
  }
}
</style>

    <g id="hexagones">
	<path fill="none" stroke="#014922" stroke-width="8" stroke-miterlimit="10" d="M120.777,3.949H44.205L4.5,72.014l39.705,68.537
		h76.321l39.626-68.301L120.777,3.949z"/>
        <path fill="none" stroke="#014922" stroke-width="8" stroke-miterlimit="10" d="M247.017,77.823h-76.572l-39.705,68.064
		l39.705,68.537h76.321l39.626-68.301L247.017,77.823z"/>
        <path fill="none" stroke="#014922" stroke-width="8" stroke-miterlimit="10" d="M372.754,3.95h-76.572l-39.705,68.064
		l39.705,68.537h76.32l39.627-68.301L372.754,3.95z"/>
</g>
    <g id="arig">
	<path id="arig_a" fill="#FFFFFF" stroke="#CDCDCB" stroke-width="2.5" stroke-miterlimit="10" d="M102.68,49.646
		c-12.583,0-18.583,0-43.125,0c-14.292,0-32.125,9.628-32.125,32.75c0,25.628,19.833,33.25,31.875,33.25c20.458,0,33.708,0,35.375,0
		c3.167,0,9-3.459,9-13.625c0-9.334-5.583-13.667-9.833-13.5c-4.958,0-33.083,0.042-34.25,0.042s-4.917-1.084-4.917-5.917
		s3.583-5.75,4.75-5.75s37.25,0,40.25,0s5.125,1.789,5.125,4.5s0,22.955,0,26.125s3.125,8.125,14.25,8.125
		c10.292,0,13-5.461,13-8.75s0-2.461,0-24.25S115.263,49.646,102.68,49.646z"/>
        <path id="arig_r" fill="#FFFFFF" stroke="#CDCDCB" stroke-width="2.5" stroke-miterlimit="10" d="M239.305,63.396
    c0-5.468-3.208-13.75-8.75-13.75s-38.458,0-54.5,0c-17.875,0-32.25,14.802-32.25,27.5c0,14.365,0,24.875,0,30.125
    s6.792,8.375,13,8.375s14.125-2.708,14.125-8.5s0-22.813,0-24.865c0-3.083,1.75-5.385,6-5.385c3.417,0,46.5,0,52.625,0
    S239.305,68.864,239.305,63.396z"/>
        <path id="arig_r1" fill="#FFFFFF" stroke="#CDCDCB" stroke-width="2.5" stroke-miterlimit="10" d="M223.961,88.521
    c-7.508,0-13.594,6.568-13.594,13.563s6.086,13.563,13.594,13.563s13.594-6.072,13.594-13.563S231.469,88.521,223.961,88.521z"/>
        <path id="arig_i" fill="#FFFFFF" stroke="#CDCDCB" stroke-width="2.5" stroke-miterlimit="10" d="M263.514,49.177
		c-6.209,0-13.667,3.34-13.667,9.839s0,41.166,0,47.333s7.749,9.917,13.666,9.917s13.667-3.417,13.667-9s0-41.832,0-48.249
		C277.18,52.887,270.336,49.177,263.514,49.177v-1.344c6.635,0,13.666-5.295,13.666-13.271c0-8.458-6.124-13.916-13.666-13.916
		c-7.875,0-13.667,6.458-13.667,13.541c0,7.118,6.021,13.646,13.667,13.646V49.177z"/>
        <path id="arig_g" fill="#FFFFFF" stroke="#CDCDCB" stroke-width="2.5" stroke-miterlimit="10" d="M321.055,49.646
		c21.542,0,19.624,0,42.625,0c20.584,0,30,21.542,30,33c0,10.125,0,22.125,0,39.375c0,20.5-16.666,32.125-32.25,32.125
		c-17.749,0-30.501,0-34.75,0s-5-9.719-5-13s0.833-14.25,4.875-14.25s30.812,0,34.688,0s5.25-3.458,5.25-5.5s0-36,0-38.75
		s-1.25-6-7.313-6s-35,0.25-38.125,0.25s-5.25,1.813-5.25,5.75s2.625,5.875,5.625,5.875s29.313,0,34.625,0s9,7.438,9,13.563
		s-3.438,13.563-9,13.563s-15.459,0-34.875,0c-18.249,0-32.375-12.625-32.375-33C288.805,61.354,303.931,49.646,321.055,49.646z"/>
</g>
    <g id="arig_alien">
  <path id="arig_alien_a" fill="#249D2E" stroke="#FFFFFF" stroke-width="1.8" stroke-miterlimit="10" d="M55.007,87.085l0.81-0.806
    c0,0,13.124-13.061,15.623-15.561c1.38-1.38,3.544-2.172,5.937-2.172c2.384,0,4.619,0.812,5.979,2.172
    c1.906,1.906,15.623,15.561,15.623,15.561l0.822,0.818l-7.822,7.506l-0.786-0.778c0,0-12.379-12.254-13.066-12.941
    c-0.06-0.057-0.342-0.184-0.792-0.184s-0.732,0.126-0.792,0.184c-0.683,0.683-12.623,12.443-13.131,12.943l-0.797,0.786
    L55.007,87.085z"/>
        <path id="arig_alien_a1" fill="#249D2E" stroke="#FFFFFF" stroke-width="1.8" stroke-miterlimit="10" d="M77.211,99.279
    c-3.399,0-6.165-2.835-6.165-6.321s2.766-6.321,6.165-6.321s6.165,2.835,6.165,6.321S80.61,99.279,77.211,99.279z"/>
        <path id="arig_alien_r" fill="#249D2E" stroke="#FFFFFF" stroke-width="1.8" stroke-miterlimit="10" d="M170.665,84.275l7.676-7.782
		l10.477,10.499c1.858-1.798,5.884-5.682,6.282-6.08c0.305-0.305,0.385-0.914-0.006-1.305c-0.249-0.235-10.464-9.725-10.464-9.725
		l7.772-7.772l0.801,0.747c0.358,0.334,8.8,8.215,11.488,10.903c1.502,1.502,2.358,3.88,2.348,6.525
		c-0.009,2.643-0.881,5.025-2.392,6.535c-1.716,1.715-3.733,3.704-5.23,5.181c-0.883,0.871-1.585,1.563-1.936,1.914
	c-0.619,0.619-0.468,1.417,0,1.885c0.894,0.894,8.58,8.416,8.658,8.491l0.825,0.807l-7.79,7.685L170.665,84.275z"/>
        <path id="arig_alien_i" fill="#249D2E" stroke="#FFFFFF" stroke-width="1.8" stroke-miterlimit="10" d="M255.647,101.598
    c0,0,7.386-7.429,7.775-7.818c0.229,0.229,7.764,7.818,7.764,7.818l-7.764,7.796L255.647,101.598z"/>
        <path id="arig_alien_i1" fill="#249D2E" stroke="#FFFFFF" stroke-width="1.8" stroke-miterlimit="10" d="M263.598,82.643
    c-3.531,0-6.403-2.873-6.403-6.403s2.873-6.403,6.403-6.403s6.403,2.873,6.403,6.403S267.128,82.643,263.598,82.643z"/>
        <path id="arig_alien_g" fill="#249D2E" stroke="#FFFFFF" stroke-width="1.8" stroke-miterlimit="10" d="M348.721,114.803l0.787-0.777
		c0,0,5.109-5.046,5.878-5.815c0.315-0.315,0.377-1.054-0.004-1.435c-0.462-0.461-1.552-1.59-2.414-2.487
		c-3.032,1.714-6.44,2.615-9.913,2.615c-11.137,0-20.196-9.046-20.196-20.165s9.06-20.165,20.196-20.165s20.196,9.046,20.196,20.165
		c0,3.479-0.908,6.892-2.636,9.926l5.179,5.178c2.859,2.859,2.424,8.679,0,11.104l-9.702,9.702L348.721,114.803z M342.992,77.717
		c-5.096,0-9.241,4.062-9.241,9.054s4.146,9.054,9.241,9.054s9.241-4.062,9.241-9.054S348.088,77.717,342.992,77.717z"/>
</g>
    <g id="robotique">
  <path id="robotique_r" fill-rule="evenodd" clip-rule="evenodd" fill="none" stroke="#CDCDCB" stroke-width="4"
        stroke-linecap="round"
        stroke-linejoin="round" stroke-miterlimit="10"
        d="M192.344,129.203c0,0-5.531,0-8.094,0c-1.656,0-2.75,1.406-2.75,2.719c0,1.125,0,4.281,0,4.281"/>

        <line id="robotique_r1" fill-rule="evenodd" clip-rule="evenodd" fill="none" stroke="#CDCDCB" stroke-width="4"
              stroke-linecap="round"
              stroke-linejoin="round" stroke-miterlimit="10" x1="191.493" y1="135.247" x2="191.578" y2="135.247"/>

        <path id="robotique_o" fill-rule="evenodd" clip-rule="evenodd" fill="none" stroke="#CDCDCB" stroke-width="4"
              stroke-linecap="round"
              stroke-linejoin="round" stroke-miterlimit="10" d="M200.125,129.203c1.906,0,2.125,0,4.375,0c1.359,0,3,0.781,3,3.102
  c0,2.289-1.734,2.942-2.75,2.942c-2.031,0-2.625,0-4.625,0s-2.75-1.544-2.75-3.007C197.375,130.765,198.219,129.203,200.125,129.203z"/>

        <path id="robotique_b" fill-rule="evenodd" clip-rule="evenodd" fill="none" stroke="#CDCDCB" stroke-width="4"
              stroke-linecap="round"
              stroke-linejoin="round" stroke-miterlimit="10" d="M212.917,135.247c0,0,7.583,0,9,0c1.137,0,3.083-0.487,3.083-2.942s-1.826-3.102-3.083-3.102
  c-1.625,0-4.167,0-5.292,0c-2.438,0-3.208-1.355-3.208-2.896s-0.042-2.333-0.042-2.333"/>

        <path id="robotique_o_2" fill-rule="evenodd" clip-rule="evenodd" fill="none" stroke="#CDCDCB" stroke-width="4"
              stroke-linecap="round"
              stroke-linejoin="round" stroke-miterlimit="10" d="M233.637,129.171c1.906,0,2.125,0,4.375,0c1.359,0,3,0.781,3,3.102c0,2.289-1.734,2.942-2.75,2.942
  c-2.031,0-2.625,0-4.625,0s-2.75-1.544-2.75-3.007C230.887,130.734,231.731,129.171,233.637,129.171z"/>

        <line id="robotique_t" fill-rule="evenodd" clip-rule="evenodd" fill="none" stroke="#CDCDCB" stroke-width="4"
              stroke-linecap="round"
              stroke-linejoin="round" stroke-miterlimit="10" x1="246.719" y1="129.171" x2="258.781" y2="129.246"/>

        <line id="robotique_t1" fill-rule="evenodd" clip-rule="evenodd" fill="none" stroke="#CDCDCB" stroke-width="4"
              stroke-linecap="round" stroke-linejoin="round"
              stroke-miterlimit="10" x1="252.781" y1="135.247" x2="252.866" y2="135.247"/>

        <line id="robotique_i" fill-rule="evenodd" clip-rule="evenodd" fill="none" stroke="#CDCDCB" stroke-width="4"
              stroke-linecap="round" stroke-linejoin="round"
              stroke-miterlimit="10" x1="264.472" y1="129.246" x2="264.483" y2="135.359"/>

        <line id="robotique_i1" fill-rule="evenodd" clip-rule="evenodd" fill="none" stroke="#CDCDCB" stroke-width="4"
              stroke-linecap="round" stroke-linejoin="round"
              stroke-miterlimit="10" x1="264.441" y1="124.925" x2="264.526" y2="124.925"/>

        <path id="robotique_q" fill-rule="evenodd" clip-rule="evenodd" fill="none" stroke="#CDCDCB" stroke-width="4"
              stroke-linecap="round" stroke-linejoin="round"
              stroke-miterlimit="10" d="M282.084,129.246c0,0-7.583,0-9,0c-1.137,0-3.083,0.487-3.083,2.942s1.826,3.102,3.083,3.102c1.625,0,4.167,0,5.292,0
  c2.438,0,3.208,1.355,3.208,2.896s0.042,2.333,0.042,2.333"/>

        <path id="robotique_u" fill-rule="evenodd" clip-rule="evenodd" fill="none" stroke="#CDCDCB" stroke-width="4"
              stroke-linecap="round" stroke-linejoin="round"
              stroke-miterlimit="10" d="M298.021,129.246c0,0,0,1.527,0,2.902s-0.876,3.021-2.709,3.021s-3.146,0-4.563,0c-1.646,0-3.083-1.333-3.083-2.961
  c0-1.456,0-2.961,0-2.961"/>

        <path id="robotique_e" fill-rule="evenodd" clip-rule="evenodd" fill="none" stroke="#CDCDCB" stroke-width="4"
              stroke-linecap="round" stroke-linejoin="round"
              stroke-miterlimit="10" d="M315.813,135.168c0,0-7.229,0-9.25,0c-1.917,0-2.625-1.542-2.625-2.91c0-1.681,0.688-3.013,2.875-3.013
  c0.521,0,1.475,0.005,1.563,0.005c1.938,0,2.729,1.66,2.729,3.007c0,0.653,0.041,2.486,0.041,2.486"/>
</g>
</svg>
